<svg xmlns="http://www.w3.org/2000/svg" height="20" width="20" fill="#FF0000" viewBox="0 0 6.03 5.03">
    <g>
        <g>
            <path class="cls-1"
                  d="M6,1.74a2,2,0,0,1-.66,1.49A15.15,15.15,0,0,1,3.86,4.5l-.54.41a.44.44,0,0,1-.59,0,20.82,20.82,0,0,1-2-1.68A2.1,2.1,0,0,1,0,1.6,1.72,1.72,0,0,1,1.4,0,1.58,1.58,0,0,1,2.89.56c.11.11.16.1.26,0A1.6,1.6,0,0,1,4.43,0,1.71,1.71,0,0,1,6,1.4,2,2,0,0,1,6,1.74Zm-.43,0A1.23,1.23,0,0,0,3.76.6a2,2,0,0,0-.58.59c-.12.17-.2.17-.33,0A2.38,2.38,0,0,0,2.46.74,1.13,1.13,0,0,0,1.19.54,1.21,1.21,0,0,0,.44,1.65,1.52,1.52,0,0,0,.91,2.84a18.28,18.28,0,0,0,2,1.7.11.11,0,0,0,.17,0l.52-.4a12.29,12.29,0,0,0,1.5-1.29A1.53,1.53,0,0,0,5.6,1.71Z"/>
        </g>
    </g>
</svg>