<svg xmlns="http://www.w3.org/2000/svg" height="24" width="24" viewBox="0 0 5.49 5.78">
    <g>
        <g>
            <path class="cls-1"
                  d="M2.74,5.78H.26C.09,5.78,0,5.7,0,5.54A2.21,2.21,0,0,1,1.25,3.61,2.65,2.65,0,0,1,2.52,3.3H3.2a2.59,2.59,0,0,1,1.48.59,2.18,2.18,0,0,1,.76,1.22,3,3,0,0,1,0,.43c0,.14-.09.23-.25.23H2.74ZM5,5.36v0a1.6,1.6,0,0,0-.31-.75,2,2,0,0,0-1.53-.84c-.21,0-.43,0-.64,0a1.93,1.93,0,0,0-.68.1A2,2,0,0,0,.58,5c0,.13-.08.27-.12.41Z"/>
            <path class="cls-1"
                  d="M1.14,1.44A1.53,1.53,0,0,1,2.74,0,1.53,1.53,0,0,1,4.35,1.47a1.54,1.54,0,0,1-1.6,1.42A1.53,1.53,0,0,1,1.14,1.44Zm.46,0a1.09,1.09,0,0,0,1.14,1,1.09,1.09,0,0,0,1.15-1,1.1,1.1,0,0,0-1.15-1A1.11,1.11,0,0,0,1.6,1.44Z"/>
        </g>
    </g>
</svg>