<svg xmlns="http://www.w3.org/2000/svg" height="20" width="20" fill="#FFD700" viewBox="0 0 5.6 5.38">
    <g>
        <g>
            <path class="cls-1"
                  d="M4.22,5.38A1,1,0,0,1,4,5.31L2.87,4.83a.19.19,0,0,0-.15,0l-1.14.5a.5.5,0,0,1-.7-.44,2.19,2.19,0,0,1,0-.36L1,3.64a.29.29,0,0,0-.08-.25c-.27-.3-.54-.59-.8-.9a.49.49,0,0,1,.29-.81l1.18-.26a.2.2,0,0,0,.16-.11l.6-1a.5.5,0,0,1,.9,0c.2.33.39.67.59,1A.25.25,0,0,0,4,1.43l1.17.25a.5.5,0,0,1,.27.84l-.81.9a.21.21,0,0,0-.06.17c0,.4.09.8.13,1.2A.52.52,0,0,1,4.22,5.38ZM1.27,4.86c0,.09.08.14.19.09l1.1-.49a.54.54,0,0,1,.48,0L4.13,5c.13,0,.2,0,.19-.14,0-.35-.07-.71-.11-1.06a.67.67,0,0,1,.17-.62c.26-.28.51-.57.76-.85.1-.11.07-.19-.07-.22L3.92,1.81A.6.6,0,0,1,3.5,1.5L2.92.5Q2.8.29,2.68.5c-.2.34-.4.68-.59,1a.57.57,0,0,1-.38.28L.52,2.06c-.13,0-.16.11-.07.21l.81.9a.55.55,0,0,1,.14.44,2,2,0,0,1,0,.23C1.34,4.17,1.31,4.51,1.27,4.86Z"/>
        </g>
    </g>
</svg>